PathFileType	4	(X/Y/Z)	Patient4_TMGait_0pt8_01_left_36.trc.trc
DataRate	CameraRate	NumFrames	NumMarkers	Units	OrigDataRate	OrigDataStartFrame	OrigNumFrames
87.500000000000	87.500000000000	6	33	mm	87.500000000000	36	       141
Frame#	Time	Sacral			L.Shoulder			Chest			R.Shoulder			Neck			R.ASIS			L.ASIS			R.Thigh.Superior			R.Thigh.Lateral			R.Thigh.Inferior			R.Patella			L.Thigh.Superior			L.Thigh.Lateral			L.Thigh.Inferior			L.Patella			L.Shank.Superior			L.Shank.Lateral			L.Shank.Inferior			R.Shank.Superior			R.Shank.Lateral			R.Shank.Inferior			R.Heel			R.Midfoot.Superior			R.Midfoot.Lateral			R.Toe			L.Heel			L.Midfoot.Lateral			L.Midfoot.Superior			L.Toe			L.Elbow			L.Wrist			R.Elbow			R.Wrist			
		X1	Y1	Z1	X2	Y2	Z2	X3	Y3	Z3	X4	Y4	Z4	X5	Y5	Z5	X6	Y6	Z6	X7	Y7	Z7	X8	Y8	Z8	X9	Y9	Z9	X10	Y10	Z10	X11	Y11	Z11	X12	Y12	Z12	X13	Y13	Z13	X14	Y14	Z14	X15	Y15	Z15	X16	Y16	Z16	X17	Y17	Z17	X18	Y18	Z18	X19	Y19	Z19	X20	Y20	Z20	X21	Y21	Z21	X22	Y22	Z22	X23	Y23	Z23	X24	Y24	Z24	X25	Y25	Z25	X26	Y26	Z26	X27	Y27	Z27	X28	Y28	Z28	X29	Y29	Z29	X30	Y30	Z30	X31	Y31	Z31	X32	Y32	Z32	X33	Y33	Z33	

36	40.140000000000	895.760428696194	1005.668216559622	479.236655043215	1035.924741594325	1432.078525505205	299.103690266620	1164.118922997729	1362.856355731815	441.473914201393	1105.560425372416	1431.445406822083	627.506072361159	1040.214110659701	1488.048614910505	457.952071746155	1124.265727490923	929.007680926340	576.929570820982	1095.829018064670	957.036699648986	305.488887945271	1116.655550680953	714.518260704115	559.787679573609	1012.222753769587	624.403673773504	626.227968164223	1076.699849524103	550.981454294566	552.559893658711	1049.857644466773	450.769447798925	569.729363243947	1168.740655018088	766.465946652647	337.534125944623	1102.451407959068	637.284367157888	273.840894447248	1202.859981099963	573.002865960883	332.544153347114	1216.578040265478	501.411335020604	338.349414887490	1193.700052827861	425.936933260090	333.260686474649	1110.631114530107	305.384655327388	286.984533042876	1173.486816931440	197.926691938845	353.757316110947	976.417162437280	386.572453860073	576.749526642349	860.630161848121	337.737484813978	640.304506037889	852.571032523806	228.889640277113	586.013871404868	654.178578339362	136.357691850022	559.831134633355	831.671840561714	113.053921914885	596.022476824663	724.804503691109	85.967468767566	628.464333596130	916.889361277161	33.704305433297	613.149993350693	1056.639196944480	38.670939673848	399.562815703524	1127.742395797429	36.777359578801	316.144928396374	1211.279416394581	98.118036199718	340.814893328922	1338.814990753680	46.513316530824	307.568899204445	886.450937860289	1112.326952346051	215.171269199611	824.415137849173	860.361066477091	234.736435882008	1258.231669968688	1124.031380387668	730.907853469045	1484.050752494587	1217.979102700963	672.603407209447	
37	40.151428571429	895.739135671786	1006.925284722938	475.870890979534	1037.590493448636	1433.853057706367	296.983059423802	1164.768536150473	1364.290856597845	440.064985717435	1104.946792905068	1432.640054968009	625.746481591082	1040.652538538418	1489.455954170398	455.978709696821	1124.027452855523	930.460522786111	573.983702972037	1096.590520326735	958.658330554535	302.838379532272	1121.230669926272	716.386716098896	557.247221327459	1019.347693652257	624.145681999500	624.044087837566	1085.996931217985	551.623707545665	550.733755169634	1060.096556731791	449.665473350015	569.166792295739	1168.233052313091	766.009008726862	333.520666764550	1098.839303863700	637.140444537252	272.111176944087	1198.749831084075	571.875583303790	330.334551556858	1211.548302261944	500.591346564923	337.235495768504	1188.124741537195	425.290964557880	332.331562788690	1104.120672898694	305.398272322550	286.196247293920	1165.679815553013	197.594468574619	353.454856872869	984.138209142838	386.719640002799	575.951702889724	866.363414166422	342.599637157293	639.399446335818	854.649337928071	233.737490191253	586.117248150657	653.485344108063	150.928027566884	560.111702569589	829.076334441041	117.241615895505	596.757426103375	720.854967937506	96.141950678093	628.603748498754	908.476056322085	32.422999584383	613.357614461217	1047.545494986859	38.666344391004	399.435285274942	1118.613295439126	36.750221166632	316.001913076544	1202.214846244515	98.102031559977	340.670506801477	1329.746412354932	46.223859486845	307.311975588226	893.179792847157	1111.436475333932	210.532204692726	839.303316728855	857.390704842125	228.501520493868	1249.622660197473	1120.628870730747	730.156213462761	1478.378332063500	1208.241429225893	673.444838240881	
38	40.162857142857	895.491767995332	1007.948311585341	472.605266860633	1039.233728945348	1435.446551116820	294.876504920348	1165.270689473473	1365.538705066390	438.766639510438	1104.046120195470	1433.623915631258	624.068417985079	1040.959887334131	1490.706855850524	454.004430826142	1123.616233217530	931.791747368376	571.273643817756	1097.185997784895	960.026136936174	300.359113912700	1126.149569990445	718.358704374390	554.888510362355	1027.007318383742	623.851740957670	621.873277690577	1095.874630574741	552.436025632224	548.814248155996	1071.052676366231	448.794393135513	568.209566701287	1167.478220884238	765.260978491057	329.797740238348	1095.152582963997	636.888452696166	270.551208361077	1194.511932068424	570.682500183193	328.419392555706	1206.391422860647	499.690657724712	336.271259903846	1182.408900530490	424.573740341983	331.490414386339	1097.455734399406	305.333492531479	285.537564144646	1157.797081716979	197.195987589876	353.209716413653	992.708780313098	387.011353048171	574.866283464518	873.150186378836	347.643886086956	638.240235083518	857.678017807519	238.962326123970	585.947018137719	654.256772494487	166.250462797801	560.087471087818	827.328205607669	122.121950705552	597.299542522183	718.039163198139	107.297448583323	628.572503313405	900.550200872285	31.146639049840	613.645357871147	1038.372907122159	38.655541477878	399.352209632969	1109.421515967548	36.692268865677	315.917570916026	1193.131195323716	98.005705996273	340.612687733183	1320.645792181950	45.769449992067	307.170173005716	900.095463083348	1110.422950417377	205.737889515825	855.311548955540	854.397241489997	221.998664381672	1240.260711229754	1117.011460599430	729.323972143244	1472.364424093891	1196.875463882666	674.592131569285	
39	40.174285714286	895.024587248103	1008.729948852225	469.467347619763	1040.828389773473	1436.817776056131	292.797354776633	1165.615450552249	1366.577950457613	437.586415424194	1102.875107840818	1434.388930623461	622.483376604093	1041.131234685946	1491.790344650925	452.028630607637	1123.030787396437	932.975558507988	568.825254343003	1097.602804404168	961.126964402654	298.060372074438	1131.290281184986	720.451201852816	552.699312302750	1035.088457878429	623.601680669835	619.724577226497	1106.157202394301	553.492565437978	546.776725815476	1082.590510094452	448.242418784886	566.846129965712	1166.471075091020	764.291577954510	326.480304784247	1091.537253987303	636.600159958961	269.106815510567	1190.228549920819	569.473959517021	326.813130236964	1201.185071982317	498.733501984390	335.432775422866	1176.630609849828	423.799546262254	330.726043314559	1090.729723643600	305.213834623959	284.948958792959	1149.878262083140	196.745928646248	353.001758915764	1002.024142469880	387.517000358180	573.503680804398	880.898207221421	352.837117854738	636.810566839808	861.677709116209	244.503599165069	585.491271206578	656.547352236415	181.959969152891	559.733842870309	826.573914762878	127.619822929320	597.608375210221	716.527324669738	119.165330410847	628.342247028477	893.397735490100	30.057686836190	613.962655869516	1029.151652171846	38.649406850761	399.286670530673	1100.195031479945	36.617524369733	315.864594958132	1184.044063189700	97.852417503396	340.610017832210	1311.529271995732	45.202038377674	307.111596768474	907.242999125048	1109.242414296251	200.804429085328	872.390509905782	851.445738766408	215.278154641495	1230.203919767080	1113.218140242788	728.377378204917	1465.919349661665	1183.876680256648	676.035768474551	
40	40.185714285714	894.350059553966	1009.288573355435	466.472302960154	1042.342931967155	1437.947942305256	290.764748336732	1165.795803390630	1367.408279627517	436.529499211567	1101.460223158226	1434.946108003894	621.001881632750	1041.165198218918	1492.711543082516	450.058475436763	1122.271628276114	934.004681371527	566.648502309283	1097.840457293192	961.974608357347	295.944734287983	1136.522037580458	722.691658292328	550.642316859263	1043.476467587864	623.484439366248	617.609903742097	1116.671057255048	554.872955935341	544.608396987261	1094.581154902216	448.097230501373	565.108676023912	1165.223051505421	763.181782247725	323.634693214329	1088.079654450532	636.327021336302	267.740453326340	1185.953199655850	568.286290044573	325.504219403097	1195.982566988587	497.741439548317	334.703392341735	1170.843659879092	422.983512173884	330.029370205946	1084.003218520390	305.062642410316	284.392081184908	1141.947595460363	196.260414943435	352.816480466422	1011.984448212066	388.305570855565	571.899546211334	889.508848083402	358.132337259930	635.117754222570	866.677524080513	250.269703267002	584.752563673863	660.370071354226	197.613438752459	559.043386462897	826.981380404019	133.596295323449	597.638395705800	716.486063648970	131.388653226178	627.889731721127	887.383063940398	29.365948634228	614.238290569645	1019.908828158405	38.654660456670	399.217956431615	1090.956882159156	36.538281815870	315.820670953695	1174.962043699474	97.667175831977	340.633516755798	1302.407414238827	44.578723400555	307.101627037867	914.692074005264	1107.870569194859	195.744984804708	890.501883387879	848.613444545820	208.396493704466	1219.515027765648	1109.300501977972	727.289593736621	1458.928135420557	1169.255557809313	677.763228772449	
41	40.197142857143	893.485224236429	1009.664308356822	463.621954108626	1043.744136591584	1438.839787442135	288.801117660781	1165.808386178217	1368.049048712848	435.598377824784	1099.832270486392	1435.321650834227	619.632277185463	1041.064334912797	1493.487814020407	448.108118947499	1121.341422685759	934.890016290347	564.740857547189	1097.912830266901	962.604477916700	294.013439107705	1141.718375162650	725.115392667924	548.663035908973	1052.060898860943	623.590121204442	615.542285578926	1127.256998495712	556.654604915600	542.311370650126	1106.905860935857	448.442817857440	563.063249439729	1163.761721121182	762.008314707713	321.279099937710	1084.803016250538	636.097972636633	266.436332952609	1181.706924072573	567.139574968161	324.462798326456	1190.808542794401	496.731747076909	334.075063822854	1165.074091204271	422.140540746333	329.396261543686	1077.303199991450	304.900383591960	283.850434064926	1134.014706425255	195.754949021016	352.646791697995	1022.500122979173	389.436032124603	570.104529790556	898.884318056769	363.465523162867	633.190083303981	872.711209637077	256.139821097868	583.744862881856	665.695602495384	212.717099530161	558.025554792318	828.728403816273	139.858875211073	597.343172813294	718.067134882984	143.546135731065	627.199166980123	882.933918460250	29.273445889242	614.390559434419	1010.665210347090	38.674212857102	399.133108962818	1081.723316783553	36.464047801204	315.770640674159	1165.887690799911	97.472049969342	340.661028893497	1293.285542507590	43.951641381021	307.109507815934	922.525780723877	1106.310126446050	190.573272971521	909.611264920489	845.993408022521	201.416718456676	1208.263982560227	1105.324900258444	726.043353112127	1451.254291101338	1153.047110611901	679.757141277146	
